HIERARCHY
ROOT Reference
{
  OFFSET 0 0 0
  CHANNELS 6 Xposition Yposition Zposition Zrotation Xrotation Yrotation
  JOINT Hips
  {
    OFFSET 251.394 724.17 483.536
    CHANNELS 3 Zrotation Xrotation Yrotation
    JOINT RightUpLeg
    {
      OFFSET -0.450515 -23.4426 -1.37224
      CHANNELS 3 Zrotation Xrotation Yrotation
      JOINT RightLeg
      {
        OFFSET 112.821 0.0872427 -0.321027
        CHANNELS 3 Zrotation Xrotation Yrotation
        JOINT RightFoot
        {
          OFFSET 105.718 0.000193788 0.0213165
          CHANNELS 3 Zrotation Xrotation Yrotation
          JOINT RightToeBase
          {
            OFFSET 37.638 -0.000116272 0.00224792
            CHANNELS 3 Zrotation Xrotation Yrotation
            JOINT RightToeEnd
            {
              OFFSET 21.2112 0.114605 -0.000138184
              CHANNELS 3 Zrotation Xrotation Yrotation
              End Site
              {
                OFFSET 0 0 0
              }
            }
          }
        }
      }
    }
    JOINT LeftUpLeg
    {
      OFFSET -0.449508 23.4315 -1.37054
      CHANNELS 3 Zrotation Xrotation Yrotation
      JOINT LeftLeg
      {
        OFFSET 112.821 -0.0485242 -0.372458
        CHANNELS 3 Zrotation Xrotation Yrotation
        JOINT LeftFoot
        {
          OFFSET 105.716 0.00496094 -0.0229443
          CHANNELS 3 Zrotation Xrotation Yrotation
          JOINT LeftToeBase
          {
            OFFSET 37.639 0 0.00158905
            CHANNELS 3 Zrotation Xrotation Yrotation
            JOINT LeftToeEnd
            {
              OFFSET 21.2113 -0.125031 -0.00017438
              CHANNELS 3 Zrotation Xrotation Yrotation
              End Site
              {
                OFFSET 0 0 0
              }
            }
          }
        }
      }
    }
    JOINT Spine
    {
      OFFSET -5.01225 0.000463591 -9.60395
      CHANNELS 3 Zrotation Xrotation Yrotation
      JOINT Spine1
      {
        OFFSET 26.0222 -0.000271301 -0.000155029
        CHANNELS 3 Zrotation Xrotation Yrotation
        JOINT Spine2
        {
          OFFSET 27.173 -0.000155029 -0.000310058
          CHANNELS 3 Zrotation Xrotation Yrotation
          JOINT Spine3
          {
            OFFSET 36.3953 -0.000232544 7.75146e-005
            CHANNELS 3 Zrotation Xrotation Yrotation
            JOINT Neck
            {
              OFFSET 36.4331 0 -3.00261
              CHANNELS 3 Zrotation Xrotation Yrotation
              JOINT Head
              {
                OFFSET 23.0407 -0.000232544 -0.000310058
                CHANNELS 3 Zrotation Xrotation Yrotation
                End Site
                {
                  OFFSET 0 0 0
                }
              }
            }
            JOINT LeftShoulder
            {
              OFFSET 20.1317 6.74168 -12.6061
              CHANNELS 3 Zrotation Xrotation Yrotation
              JOINT LeftArm
              {
                OFFSET 34.2172 -5.81359e-005 7.75146e-005
                CHANNELS 3 Zrotation Xrotation Yrotation
                JOINT LeftForeArm
                {
                  OFFSET 65.4129 -0.0821605 0.0585235
                  CHANNELS 3 Zrotation Xrotation Yrotation
                  JOINT LeftHand
                  {
                    OFFSET 67.3883 0.0359667 0.0112396
                    CHANNELS 3 Zrotation Xrotation Yrotation
                    JOINT LeftHandThumb1
                    {
                      OFFSET 8.78386 2.85353 -6.05362
                      CHANNELS 3 Zrotation Xrotation Yrotation
                      JOINT LeftHandThumb2
                      {
                        OFFSET 8.25498 -0.000116272 -0.000174407
                        CHANNELS 3 Zrotation Xrotation Yrotation
                        JOINT LeftHandThumb3
                        {
                          OFFSET 7.24822 0.000310058 5.81358e-005
                          CHANNELS 3 Zrotation Xrotation Yrotation
                          JOINT LeftHandThumb4
                          {
                            OFFSET 7.0004 -3.87568e-005 -0.000310057
                            CHANNELS 3 Zrotation Xrotation Yrotation
                            End Site
                            {
                              OFFSET 0 0 0
                            }
                          }
                        }
                      }
                    }
                    JOINT LeftHandIndex1
                    {
                      OFFSET 24.0991 -1.01537 -5.40558
                      CHANNELS 3 Zrotation Xrotation Yrotation
                      JOINT LeftHandIndex2
                      {
                        OFFSET 7.26759 -0.000290679 -0.000465086
                        CHANNELS 3 Zrotation Xrotation Yrotation
                        JOINT LeftHandIndex3
                        {
                          OFFSET 7.13628 -1.93787e-005 0.000232543
                          CHANNELS 3 Zrotation Xrotation Yrotation
                          JOINT LeftHandIndex4
                          {
                            OFFSET 5.46699 9.68932e-005 -0.000387571
                            CHANNELS 3 Zrotation Xrotation Yrotation
                            End Site
                            {
                              OFFSET 0 0 0
                            }
                          }
                        }
                      }
                    }
                    JOINT LeftHandMiddle1
                    {
                      OFFSET 24.4604 -2.52837 0.918567
                      CHANNELS 3 Zrotation Xrotation Yrotation
                      JOINT LeftHandMiddle2
                      {
                        OFFSET 7.41627 -5.81359e-005 0.000116271
                        CHANNELS 3 Zrotation Xrotation Yrotation
                        JOINT LeftHandMiddle3
                        {
                          OFFSET 8.76829 3.87573e-005 -7.75142e-005
                          CHANNELS 3 Zrotation Xrotation Yrotation
                          JOINT LeftHandMiddle4
                          {
                            OFFSET 6.07588 -0.00013565 -5.81356e-005
                            CHANNELS 3 Zrotation Xrotation Yrotation
                            End Site
                            {
                              OFFSET 0 0 0
                            }
                          }
                        }
                      }
                    }
                    JOINT LeftHandRing1
                    {
                      OFFSET 22.465 -1.97467 6.3466
                      CHANNELS 3 Zrotation Xrotation Yrotation
                      JOINT LeftHandRing2
                      {
                        OFFSET 7.36666 -0.000232544 0.000387571
                        CHANNELS 3 Zrotation Xrotation Yrotation
                        JOINT LeftHandRing3
                        {
                          OFFSET 8.07624 -0.000465087 -0.000203475
                          CHANNELS 3 Zrotation Xrotation Yrotation
                          JOINT LeftHandRing4
                          {
                            OFFSET 6.04433 0.00013565 3.87571e-005
                            CHANNELS 3 Zrotation Xrotation Yrotation
                            End Site
                            {
                              OFFSET 0 0 0
                            }
                          }
                        }
                      }
                    }
                    JOINT LeftHandPinky1
                    {
                      OFFSET 19.5278 0.352933 10.4295
                      CHANNELS 3 Zrotation Xrotation Yrotation
                      JOINT LeftHandPinky2
                      {
                        OFFSET 6.16525 5.8136e-005 -0.000251921
                        CHANNELS 3 Zrotation Xrotation Yrotation
                        JOINT LeftHandPinky3
                        {
                          OFFSET 6.14448 -0.000329434 -0.00510625
                          CHANNELS 3 Zrotation Xrotation Yrotation
                          JOINT LeftHandPinky4
                          {
                            OFFSET 4.98555 0.000116272 0.000116271
                            CHANNELS 3 Zrotation Xrotation Yrotation
                            End Site
                            {
                              OFFSET 0 0 0
                            }
                          }
                        }
                      }
                    }
                  }
                }
              }
            }
            JOINT RightShoulder
            {
              OFFSET 20.1309 -6.74152 -12.6063
              CHANNELS 3 Zrotation Xrotation Yrotation
              JOINT RightArm
              {
                OFFSET 34.2171 7.75146e-005 7.75146e-005
                CHANNELS 3 Zrotation Xrotation Yrotation
                JOINT RightForeArm
                {
                  OFFSET 65.4492 0.242543 -0.176501
                  CHANNELS 3 Zrotation Xrotation Yrotation
                  JOINT RightHand
                  {
                    OFFSET 67.3888 -0.0867388 0.0597442
                    CHANNELS 3 Zrotation Xrotation Yrotation
                    JOINT RightHandThumb1
                    {
                      OFFSET 8.78307 -2.85357 -6.05302
                      CHANNELS 3 Zrotation Xrotation Yrotation
                      JOINT RightHandThumb2
                      {
                        OFFSET 8.25493 -7.75145e-005 0
                        CHANNELS 3 Zrotation Xrotation Yrotation
                        JOINT RightHandThumb3
                        {
                          OFFSET 7.24797 -0.000174408 0.000155029
                          CHANNELS 3 Zrotation Xrotation Yrotation
                          JOINT RightHandThumb4
                          {
                            OFFSET 7.00062 0 0
                            CHANNELS 3 Zrotation Xrotation Yrotation
                            End Site
                            {
                              OFFSET 0 0 0
                            }
                          }
                        }
                      }
                    }
                    JOINT RightHandIndex1
                    {
                      OFFSET 24.0991 1.01525 -5.40578
                      CHANNELS 3 Zrotation Xrotation Yrotation
                      JOINT RightHandIndex2
                      {
                        OFFSET 7.26773 7.75144e-005 0.000232543
                        CHANNELS 3 Zrotation Xrotation Yrotation
                        JOINT RightHandIndex3
                        {
                          OFFSET 7.13572 -0.000310058 3.87571e-005
                          CHANNELS 3 Zrotation Xrotation Yrotation
                          JOINT RightHandIndex4
                          {
                            OFFSET 5.46717 0 3.87572e-005
                            CHANNELS 3 Zrotation Xrotation Yrotation
                            End Site
                            {
                              OFFSET 0 0 0
                            }
                          }
                        }
                      }
                    }
                    JOINT RightHandMiddle1
                    {
                      OFFSET 24.4603 2.52899 0.918547
                      CHANNELS 3 Zrotation Xrotation Yrotation
                      JOINT RightHandMiddle2
                      {
                        OFFSET 7.41641 -0.000116272 -0.000116272
                        CHANNELS 3 Zrotation Xrotation Yrotation
                        JOINT RightHandMiddle3
                        {
                          OFFSET 8.76765 -3.87577e-005 0.000232543
                          CHANNELS 3 Zrotation Xrotation Yrotation
                          JOINT RightHandMiddle4
                          {
                            OFFSET 6.07609 -0.000193787 -0.000116271
                            CHANNELS 3 Zrotation Xrotation Yrotation
                            End Site
                            {
                              OFFSET 0 0 0
                            }
                          }
                        }
                      }
                    }
                    JOINT RightHandRing1
                    {
                      OFFSET 22.465 1.97571 6.34696
                      CHANNELS 3 Zrotation Xrotation Yrotation
                      JOINT RightHandRing2
                      {
                        OFFSET 7.36684 0.000193786 0.000155029
                        CHANNELS 3 Zrotation Xrotation Yrotation
                        JOINT RightHandRing3
                        {
                          OFFSET 8.07614 -0.000271301 0
                          CHANNELS 3 Zrotation Xrotation Yrotation
                          JOINT RightHandRing4
                          {
                            OFFSET 6.04468 0.000232543 0
                            CHANNELS 3 Zrotation Xrotation Yrotation
                            End Site
                            {
                              OFFSET 0 0 0
                            }
                          }
                        }
                      }
                    }
                    JOINT RightHandPinky1
                    {
                      OFFSET 19.5277 -0.352346 10.4296
                      CHANNELS 3 Zrotation Xrotation Yrotation
                      JOINT RightHandPinky2
                      {
                        OFFSET 6.16508 0 0.000232543
                        CHANNELS 3 Zrotation Xrotation Yrotation
                        JOINT RightHandPinky3
                        {
                          OFFSET 6.14396 -0.000155048 -0.0048834
                          CHANNELS 3 Zrotation Xrotation Yrotation
                          JOINT RightHandPinky4
                          {
                            OFFSET 4.98577 -7.75146e-005 -7.75143e-005
                            CHANNELS 3 Zrotation Xrotation Yrotation
                            End Site
                            {
                              OFFSET 0 0 0
                            }
                          }
                        }
                      }
                    }
                  }
                }
              }
            }
          }
        }
      }
    }
  }
}
MOTION
Frames:	5
Frame Time:	0.0333333
0 0 0 -90 -7.01671e-015 -180 -6.61033 -0.675374 -129.052 179.06 -8.7972 -92.3329 -5.63283 5.55936 -77.498 -8.86698 -18.4806 53.1553 -0.564641 0.137823 54.4171 1.98997e-005 -3.71026e-005 -86.4974 178.567 -12.8913 -103.265 -0.382388 -1.3657 -15.5769 19.492 -19.7572 45.473 0.551612 -0.221387 46.8212 3.48761e-005 -0.000219021 -86.4974 -1.33894 3.14551 125.977 1.68273 -1.75252 -9.59256 -5.7766 -2.0761 -11.0316 -1.97561 -0.460431 -2.89274 -2.55704 18.8838 44.7385 21.5165 11.3651 49.034 77.365 24.6689 -6.70125 40.877 13.7581 73.6044 6.03337 -27.0658 103.376 124.727 -68.4725 117.708 -149.303 -52.7734 159.526 0.000457195 -0.000143608 14.3132 0.000171986 -0.000156874 25.7996 0.00019551 -0.00150709 -0.000163495 97.8895 70.6499 -72.7317 -0.000136979 -9.41888e-005 65.9486 0.00174479 -0.000432982 45.6887 0.000550727 -0.000867405 0.00552136 65.583 81.6791 -18.6698 0.000293989 -0.000211287 65.9843 0.00145099 -0.000397394 52.0802 0.00226028 0.00268142 -0.0140805 45.4248 79.4859 10.5892 0.000619059 -0.000474634 57.3574 0.0023597 0.000294558 59.5975 0.0100911 0.00461824 -0.00756569 37.2112 71.2601 15.4917 0.0017152 -0.000763322 53.6595 0.000782552 0.000310231 50.562 0.00269113 0.000383178 -0.00702402 -82.9268 -23.6077 -16.9855 -39.2107 -31.0567 79.315 -15.1714 2.89359 94.2971 -59.3945 53.9809 62.9658 144.447 49.631 169.155 -0.000193342 0.000102844 17.0311 7.09755e-005 7.34484e-005 25.4277 -0.000244141 -7.62937e-005 -180 -96.8842 -70.8598 -102.299 -0.000181646 -0.000241295 48.6227 -3.81506e-005 2.51966e-005 50.3691 -0.00122665 0.00207517 179.743 -106.861 -80.4898 -74.7403 -0.000274798 9.34087e-005 63.9344 -0.000317869 0.000293045 57.1633 0.00327753 0.00584403 179.731 -10.4057 -84.6817 39.8237 -0.000121213 0.000322134 54.0464 -0.000226567 -7.4045e-005 56.4712 0.000654734 -0.000366207 179.782 20.3548 -78.5079 76.3641 -0.000319087 0.000593651 50.2673 -6.83438e-005 0.000110405 48.4446 -0.00327512 -0.00353994 179.596 
0 0 0 -90 -7.01671e-015 -180 -6.44056 -1.97098 -129.292 179.236 -8.85396 -91.9822 -5.57758 5.67161 -78.99 -8.75068 -18.6767 53.6858 -0.564945 0.136593 54.542 1.99141e-005 -8.84301e-005 -86.4974 178.834 -12.9246 -103.393 -0.379228 -1.36638 -15.459 19.7184 -19.5146 45.456 0.553288 -0.217164 47.259 3.46723e-005 -9.01904e-006 -86.4974 -1.47235 3.4087 126.045 1.52408 -1.63185 -9.38523 -5.74377 -1.97519 -10.8915 -2.19672 -0.582681 -2.656 -2.10174 18.7542 43.4328 21.7028 12.0535 48.7469 76.9912 24.6461 -6.62054 41.5258 14.906 73.3596 9.12777 -26.0301 106.78 114.27 -72.7346 106.895 -149.76 -52.7962 159.094 0.000454639 -0.000142923 14.1456 0.000172287 -0.000239065 25.7996 0.000196364 -0.00134641 -0.000164349 97.9496 70.8026 -72.718 -0.00012087 -0.000106136 65.7473 0.00175201 -0.000419364 45.8088 0.001051 -2.55728e-005 0.00439352 65.028 81.7667 -18.3216 0.00030174 -0.000228273 65.9843 0.00144963 -0.000397413 51.6647 0.00233287 0.00276721 -0.0144745 45.0556 79.573 10.8256 0.000622976 -0.000492834 57.021 0.00236069 0.000295763 59.2662 0.0104812 0.00387746 -0.00873446 36.7857 71.4453 15.4317 0.00171551 -0.000774998 53.5175 0.0007799 0.000301891 50.2473 0.00276456 0.000395121 -0.0072063 -83.0115 -23.6107 -17.0057 -39.6878 -31.3264 78.815 -17.0728 2.75237 95.689 -58.3254 53.2715 60.1956 144.774 49.2717 169.036 -0.000193079 0.000103582 17.0467 7.21764e-005 7.57495e-005 25.332 -0.000244141 -0.000137329 -180 -97.0731 -71.1328 -102.191 -0.000182921 -0.000243457 48.3995 -4.08817e-005 2.7358e-005 50.0551 -0.00122652 0.00209043 179.741 -106.739 -80.5842 -74.5728 -0.000271597 9.44486e-005 63.5521 -0.000314747 0.000295326 56.8958 0.00329319 0.00588981 179.73 -9.75628 -84.746 40.397 -0.000120242 0.00032412 53.7702 -0.00022755 -7.3819e-005 56.2218 0.00054791 -0.000335689 179.76 20.9075 -78.5602 76.7687 -0.000318532 0.000595445 50.0629 -6.99724e-005 0.000108488 48.2375 -0.00321676 -0.00372303 179.574 
0 0 0 -90 -7.01671e-015 -180 -6.37079 -3.08455 -129.496 179.204 -8.86848 -91.8555 -5.56744 5.73206 -79.9386 -8.83102 -18.7071 53.9709 -0.564761 0.13736 54.4644 1.9962e-005 -0.000191011 -86.4974 178.871 -12.8897 -103.598 -0.371936 -1.36816 -15.1676 19.5862 -19.3234 45.5557 0.554579 -0.213855 47.6016 3.47289e-005 -9.64739e-006 -86.4974 -1.60761 3.65522 126.196 1.44244 -1.43419 -9.15638 -5.71711 -1.80066 -10.8063 -2.41884 -0.61492 -2.26218 -1.6045 18.2334 41.7631 21.2546 12.4549 48.4231 76.8506 24.6369 -6.59289 41.8873 15.8498 73.275 12.0798 -24.7524 110.062 98.8052 -75.7892 91.1369 -150.203 -52.814 158.675 0.000455985 -0.000144193 13.978 0.000170682 -8.08203e-005 25.7996 0.000196366 -0.00134641 -0.000164349 98.0101 70.9553 -72.7048 -0.000106571 -0.000120514 65.546 0.00175737 -0.000407143 45.9289 0.00154275 0.000811981 0.00327314 64.4632 81.8538 -17.9636 0.000309923 -0.000246461 65.9843 0.00144688 -0.000396934 51.2639 0.00241058 0.00285299 -0.0148668 44.6814 79.6598 11.0671 0.000628807 -0.000510003 56.6895 0.00236041 0.000292029 58.9397 0.00918683 0.00276514 -0.00819901 36.3568 71.6307 15.3753 0.00171788 -0.000789022 53.3756 0.000776508 0.000301759 49.9326 0.00283713 0.000405356 -0.007389 -83.2179 -23.6143 -17.0757 -40.2132 -31.5481 78.249 -18.9158 2.37549 97.2548 -56.4759 52.5795 56.7302 145.127 48.8534 168.891 -0.000194066 0.00010515 17.0623 7.2557e-005 7.75367e-005 25.2363 -0.000244141 -0.00024414 -180 -97.2565 -71.4133 -102.061 -0.000179312 -0.000245424 48.1237 -4.35247e-005 3.29679e-005 49.741 -0.00124164 0.00210568 179.739 -106.613 -80.6785 -74.4022 -0.000271192 9.58082e-005 63.1384 -0.000315214 0.000295559 56.5706 0.00332403 0.00592032 179.728 -9.09158 -84.8097 40.9855 -0.000119128 0.00032029 53.4624 -0.000227425 -7.12206e-005 55.9472 0.000425851 -0.000305172 179.738 21.4327 -78.6233 77.1256 -0.000318089 0.000598627 49.8585 -6.73611e-005 0.000110556 48.0305 -0.00315854 -0.00390612 179.553 
0 0 0 -90 -7.01671e-015 -180 -6.33922 -3.8773 -129.597 179.682 -9.0947 -91.6758 -5.57446 5.75445 -80.484 -8.9802 -18.4037 53.8935 -0.563464 0.142599 53.9325 1.99111e-005 1.01398e-005 -86.4974 178.7 -12.7337 -103.95 -0.356425 -1.37203 -14.5328 19.4222 -18.6696 46.1919 0.554762 -0.213386 47.6501 3.46979e-005 -8.14734e-006 -86.4974 -1.74276 3.88063 126.413 1.4196 -1.26042 -8.96762 -5.74853 -1.64253 -10.7909 -2.66643 -0.593679 -1.84872 -1.14179 17.3888 39.923 20.0065 12.2856 47.9835 77.0483 24.6615 -6.54294 42.2905 17.1226 73.1797 15.0881 -23.1865 113.509 75.9957 -77.1565 67.6261 -150.647 -52.8298 158.255 0.000453059 -0.000145599 13.8184 0.000169488 -8.63065e-005 25.7996 0.000196366 -0.00134982 -0.000164349 98.0633 71.0981 -72.6913 -8.78494e-005 -0.000135916 65.3447 0.00176475 -0.000389085 46.049 0.00203964 0.00165209 0.00214913 63.8886 81.9404 -17.5957 0.000318891 -0.000267949 65.9843 0.00144784 -0.000398918 50.8632 0.00237134 0.00280942 -0.0163678 44.3019 79.7462 11.3138 0.000631197 -0.000529665 56.3687 0.00236223 0.000288631 58.6197 0.00566832 0.00123622 -0.00939755 35.9754 71.8034 15.3029 0.00172108 -0.000800995 53.2423 0.000773517 0.000297323 49.6275 0.00290884 0.000419007 -0.00757299 -83.6163 -23.6305 -17.149 -40.8515 -31.772 77.2867 -20.5989 1.48696 98.9598 -53.9752 51.792 52.7952 145.486 48.4063 168.737 -0.00019706 0.00010207 17.0779 7.44151e-005 7.5465e-005 25.1406 -0.000244141 -3.05175e-005 -180 -97.4407 -71.6939 -101.931 -0.000185101 -0.000248643 47.8479 -5.66259e-005 2.49189e-005 49.3682 -0.00124151 0.00212094 179.738 -106.447 -80.7892 -74.1988 -0.00027119 9.47908e-005 62.6937 -0.000311761 0.000299394 56.2454 0.0033397 0.0059661 179.726 -8.40675 -84.8717 41.5744 -0.000117894 0.000325449 53.1546 -0.000229945 -6.94088e-005 55.634 0.000303816 -0.000274654 179.716 21.9626 -78.6857 77.4873 -0.000316463 0.000600818 49.6151 -6.32881e-005 0.000115694 47.8234 -0.00310045 -0.00408921 179.532 
0 0 0 -90 -7.01671e-015 -180 -6.3065 -4.38105 -129.565 -179.365 -9.47062 -91.9975 -5.68973 5.66722 -79.9046 -9.35818 -17.3272 53.1626 -0.56073 0.152995 52.8728 2.00649e-005 3.63688e-006 -86.4974 178.233 -12.3322 -104.698 -0.319702 -1.38077 -13.0176 19.3094 -17.907 47.6134 0.553374 -0.216976 47.2794 3.45944e-005 -1.14828e-005 -86.4974 -1.87458 4.08002 126.676 1.51406 -1.10204 -8.77584 -5.83201 -1.496 -10.7431 -2.91673 -0.467935 -1.39759 -0.439431 16.1679 36.9775 17.9883 11.6282 47.4238 77.5488 24.7229 -6.41651 42.8085 18.7955 73.205 18.2128 -21.0046 117.409 49.3003 -75.8646 39.7359 -151.074 -52.8425 157.851 0.000450472 -0.000145904 13.6587 0.000168239 -9.23665e-005 25.7996 0.000196366 -0.00135465 -0.000164349 98.1166 71.2408 -72.6781 -7.18171e-005 -0.000153327 65.1434 0.00177136 -0.000371565 46.1691 0.00253313 0.00249047 0.00102682 63.3789 82.0183 -17.2711 0.000328979 -0.000304451 65.9843 0.00145056 -0.000394673 50.4624 0.00233294 0.00276628 -0.0178683 43.9172 79.8324 11.5658 0.000638014 -0.000553472 56.0479 0.00236369 0.000291924 58.3127 0.00513037 0.000373065 -0.0102735 35.5912 71.9763 15.2337 0.00172717 -0.000817344 53.109 0.000775819 0.000293225 49.3301 0.00298312 0.000430095 -0.00775313 -84.2352 -23.6661 -17.1875 -41.6992 -31.9484 75.576 -22.5452 -0.232115 101.217 -50.2054 50.5098 47.719 145.847 47.9317 168.572 -0.000193228 0.000103882 17.0935 7.30016e-005 7.51158e-005 25.0085 -0.000244141 -3.05175e-005 -180 -97.6256 -71.9746 -101.803 -0.00018035 -0.0002498 47.5303 -5.72011e-005 3.74683e-005 48.9955 -0.00121015 0.0020599 179.706 -106.276 -80.8999 -73.9909 -0.000272318 0.000104111 62.2184 -0.000310797 0.000297511 55.8597 0.00305309 0.00602712 179.697 -7.70651 -84.9332 42.1787 -0.000120749 0.000326078 52.8161 -0.000230823 -6.93659e-005 55.3208 0.000181803 -0.000244136 179.694 22.468 -78.7618 77.8054 -0.000316089 0.000607839 49.3717 -6.96702e-005 0.000107484 47.5541 -0.0030425 -0.00427229 179.51 
